# xmcd
#
# Track frame offsets: 
#        150
#        18307
#        36677
#        50100
#        68195
#        85285
#        99812
#        129651
#        145213
#        160412
#        173640
#        183493
#        195179
#        210151
#        229352
#        242380
#        259187
#        273075
#        294758
#        307005
#
# Disc length: 4221 seconds
#
# Revision: 0
# Processed by: cddbd v1.5.2PL0 Copyright (c) Steve Scherf et al.
# Submitted via: ExactAudioCopyFreeDBPlugin 1.0
#
DISCID=16107b14
DTITLE=Waylom Jennings - Nashville Rebel - CD 03
DYEAR=2006
DGENRE=Country
TTITLE0='T' for Texas
TTITLE1=Freedom to Stay
TTITLE2=Good Hearted Woman (With Willie Nelson)
TTITLE3=Suspicious Minds (With Jessi Colter)
TTITLE4=Can't You See
TTITLE5=Are You Ready for the Country
TTITLE6=MacArthur Park (Revisited)
TTITLE7=Jack-A-Diamonds
TTITLE8=Luckenbach, Texas (With Willie Nelson)
TTITLE9=Brand New Goodbye Song
TTITLE10=The Wurlitzer Prize (I Don't Want to Get Over You)
TTITLE11=Mamas Don't Let Your Babies Grow Up to Be Cowboys (w-Willie N
TTITLE11=elson)
TTITLE12=There Ain't No Good Chain Gang (With Johnny Cash)
TTITLE13=I've Always Been Crazy
TTITLE14=Don't You Think This Outlaw Bit's Done Got Out of Hand
TTITLE15=The Greatest Cowboy of Them All (with Johnny Cash)
TTITLE16=Come with Me
TTITLE17=I Ain't Living Long Like This
TTITLE18=Clyde
TTITLE19=Theme from The Dukes of Hazzard (Good Ol' Boys)
EXTD=
EXTT0=
EXTT1=
EXTT2=
EXTT3=
EXTT4=
EXTT5=
EXTT6=
EXTT7=
EXTT8=
EXTT9=
EXTT10=
EXTT11=
EXTT12=
EXTT13=
EXTT14=
EXTT15=
EXTT16=
EXTT17=
EXTT18=
EXTT19=
PLAYORDER=
